<svg xmlns="http://www.w3.org/2000/svg" id="a6d49f83-f9dd-418e-95d3-12c61e51eefb" data-name="Capa 1" width="406" height="294" viewBox="0 0 406 294"><title>email</title><path d="M31,294A31.035,31.035,0,0,1,0,263V31A31.0353,31.0353,0,0,1,31,0H375a31.035,31.035,0,0,1,31,31V263a31.0347,31.0347,0,0,1-31,31Zm319.37-30L246.7339,160.3638l-11.0513,11.0517a46.2673,46.2673,0,0,1-65.3652,0l-11.4112-11.4111L54.9092,264ZM376,247.2017V31.0977L267.9482,139.15Zm-346-.7188L137.6919,138.79,30,31.0972Zm161.5317-96.2817a16.2178,16.2178,0,0,0,22.9366,0L334.67,30H71.3291Z"></path></svg>